<?xml version="1.0" encoding="UTF-8"?>
<svg version="1.1" width="1124" height="449.8" viewBox="0 0 562 224.9" xmlns="http://www.w3.org/2000/svg">
  <title>advance testing</title>
  <path d="m102 81.3h47v1h-47v4l-9-4.5 9-4.5z" fill="#8f8981"/>
  <path d="m247 81.3h47v1h-47v4l-9-4.5 9-4.5z" fill="#8f8981"/>
  <path d="m392 81.3h47v1h-47v4l-9-4.5 9-4.5z" fill="#8f8981"/>
  <path d="m348.5 56.3v-19.3h1v19.3h4l-4.5 9-4.5-9h4z" fill="#8f8981"/>
  <path d="m493.5 107.3v19.3h1v-19.3h4l-4.5-9-4.5 9h4z" fill="#8f8981"/>
  <path d="m504 168.6v19.3h1v-19.3h4l-4.5-9-4.5 9h4z" fill="#8f8981"/>
  <g>
    <rect x="304" y="4" width="89" height="33" fill="#f44d27"/>
    <text font-size="12px" font-weight="700" font-family="'JetBrains Mono', 'Source Code Pro', monospace" text-anchor="middle"><tspan x="348.5" y="25" fill="#f0f0f0">master</tspan></text>
  </g>
  <g>
    <rect x="294" y="65.3" width="89" height="33" rx="16.5" ry="16.5" fill="#efefe7"/>
    <text font-size="12px" font-weight="700" font-family="'JetBrains Mono', 'Source Code Pro', monospace" text-anchor="middle"><tspan x="338.5" y="86.3" fill="gray">f30ab</tspan></text>
  </g>
  <g>
    <rect x="439" y="65.3" width="89" height="33" rx="16.5" ry="16.5" fill="#efefe7"/>
    <text font-size="12px" font-weight="700" font-family="'JetBrains Mono', 'Source Code Pro', monospace" text-anchor="middle"><tspan x="483.5" y="86.3" fill="gray">87ab2</tspan></text>
  </g>
  <g>
    <rect x="149" y="65.3" width="89" height="33" rx="16.5" ry="16.5" fill="#efefe7"/>
    <text font-size="12px" font-weight="700" font-family="'JetBrains Mono', 'Source Code Pro', monospace" text-anchor="middle"><tspan x="193.5" y="86.3" fill="gray">34ac2</tspan></text>
  </g>
  <g>
    <rect x="4" y="65.3" width="89" height="33" rx="16.5" ry="16.5" fill="#efefe7"/>
    <text font-size="12px" font-weight="700" font-family="'JetBrains Mono', 'Source Code Pro', monospace" text-anchor="middle"><tspan x="48.5" y="86.3" fill="gray">98ca9</tspan></text>
  </g>
  <g>
    <rect x="449" y="126.6" width="89" height="33" fill="#f44d27"/>
    <text font-size="12px" font-weight="700" font-family="'JetBrains Mono', 'Source Code Pro', monospace" text-anchor="middle"><tspan x="493.5" y="147.6" fill="#f0f0f0">testing</tspan></text>
  </g>
  <g>
    <rect x="450" y="187.9" width="108" height="33" fill="#cd9f00"/>
    <text font-size="12px" font-weight="700" font-family="'JetBrains Mono', 'Source Code Pro', monospace" text-anchor="middle"><tspan x="504" y="208.9" fill="#f0f0f0">HEAD</tspan></text>
  </g>
</svg>
