<?xml version="1.0" encoding="UTF-8"?>
<svg version="1.1" width="802" height="430" viewBox="0 0 401 215" xmlns="http://www.w3.org/2000/svg">
  <title>Working tree, staging area, and Git directory</title>
  <line x1="60" y1="26" x2="60" y2="211" stroke="#979797" stroke-linecap="square"/>
  <line x1="200" y1="26" x2="200" y2="211" stroke="#979797" stroke-linecap="square"/>
  <line x1="340" y1="26" x2="340" y2="211" stroke="#979797" stroke-linecap="square"/>
  <g>
    <path d="M69 66L60 81L69 96V92H340V70H69Z" fill="#8f8981"/>
    <text x="204.5" y="85.8" font-size="12px" font-weight="700" font-family="'JetBrains Mono', 'Source Code Pro', monospace" text-anchor="middle" fill="#f0f0f0">Checkout the project</text>
  </g>
  <g>
    <path d="M60 122H191V118L200 133L191 148V144H60Z" fill="#8f8981"/>
    <text x="125.5" y="137.8" font-size="12px" font-weight="700" font-family="'JetBrains Mono', 'Source Code Pro', monospace" text-anchor="middle" fill="#f0f0f0">Stage Fixes</text>
  </g>
  <g>
    <path d="M200 169H331V165L340 180L331 195V191H200Z" fill="#8f8981"/>
    <text x="265.5" y="184.8" font-size="12px" font-weight="700" font-family="'JetBrains Mono', 'Source Code Pro', monospace" text-anchor="middle" fill="#f0f0f0">Commit</text>
  </g>
  <g>
    <rect x="4" y="4" width="110.58" height="38" fill="#f44d27"/>
    <text font-size="12px" font-weight="700" font-family="'JetBrains Mono', 'Source Code Pro', monospace" text-anchor="middle"><tspan x="59.29" y="20.665" fill="#f0f0f0">Working</tspan><tspan x="59.29" dy="13.07" fill="#f0f0f0">Tree</tspan></text>
  </g>
  <g>
    <rect x="144.74" y="4" width="110.58" height="38" rx="16.5" ry="16.5" fill="#00909a"/>
    <text font-size="12px" font-weight="700" font-family="'JetBrains Mono', 'Source Code Pro', monospace" text-anchor="middle"><tspan x="200.03" y="20.665" fill="#f0f0f0">Staging</tspan><tspan x="200.03" dy="13.07" fill="#f0f0f0">Area</tspan></text>
  </g>
  <g>
    <rect x="285.48" y="4" width="110.58" height="38" fill="#efefe7" stroke="#979797"/>
    <text font-size="12px" font-weight="700" font-family="'JetBrains Mono', 'Source Code Pro', monospace" text-anchor="middle"><tspan x="340.77" y="20.665" fill="gray">.git directory</tspan><tspan x="340.77" dy="13.07" fill="gray">(Repository)</tspan></text>
  </g>
</svg>
