<?xml version="1.0" encoding="UTF-8"?>
<svg version="1.1" width="1214" height="327.2" viewBox="0 0 607 163.6" xmlns="http://www.w3.org/2000/svg">
  <title>basic rebase 4</title>
  <path d="m93 80.5h29v1h-29v4l-9-4.5 9-4.5z" fill="#8f8981"/>
  <path d="m220 80.5h29v1h-29v4l-9-4.5 9-4.5z" fill="#8f8981"/>
  <path d="m347 80.5h30v1h-30v4l-9-4.5 9-4.5z" fill="#8f8981"/>
  <path d="m475 80.5h30v1h-30v4l-9-4.5 9-4.5z" fill="#8f8981"/>
  <path d="m558.5 37v18.5h1v-18.5h4l-4.5 9-4.5-9z" fill="#8f8981"/>
  <path d="m558.5 97.5v20.1h1v-20.1h4l-4.5-9-4.5 9z" fill="#8f8981"/>
  <g>
    <rect x="4" y="64.5" width="89" height="33" rx="16.5" ry="16.5" fill="#efefe7"/>
    <text font-size="12px" font-weight="700" font-family="'JetBrains Mono', 'Source Code Pro', monospace" text-anchor="middle"><tspan x="48.5" y="85.5" fill="gray">C0</tspan></text>
  </g>
  <g>
    <rect x="131" y="64.5" width="89" height="33" rx="16.5" ry="16.5" fill="#efefe7"/>
    <text font-size="12px" font-weight="700" font-family="'JetBrains Mono', 'Source Code Pro', monospace" text-anchor="middle"><tspan x="175.5" y="85.5" fill="gray">C1</tspan></text>
  </g>
  <g>
    <rect x="258" y="64.5" width="89" height="33" rx="16.5" ry="16.5" fill="#efefe7"/>
    <text font-size="12px" font-weight="700" font-family="'JetBrains Mono', 'Source Code Pro', monospace" text-anchor="middle"><tspan x="302.5" y="85.5" fill="gray">C2</tspan></text>
  </g>
  <g>
    <rect x="514" y="4" width="89" height="33" fill="#f44d27"/>
    <text font-size="12px" font-weight="700" font-family="'JetBrains Mono', 'Source Code Pro', monospace" text-anchor="middle"><tspan x="558.5" y="25" fill="#f0f0f0">experiment</tspan></text>
  </g>
  <g>
    <rect x="386" y="64.5" width="89" height="33" rx="16.5" ry="16.5" fill="#efefe7"/>
    <text font-size="12px" font-weight="700" font-family="'JetBrains Mono', 'Source Code Pro', monospace" text-anchor="middle"><tspan x="430.5" y="85.5" fill="gray">C3</tspan></text>
  </g>
  <g>
    <rect x="514" y="64.5" width="89" height="33" rx="16.5" ry="16.5" fill="#efefe7"/>
    <text font-size="12px" font-weight="700" font-family="'JetBrains Mono', 'Source Code Pro', monospace" text-anchor="middle"><tspan x="558.5" y="85.5" fill="gray">C4'</tspan></text>
  </g>
  <g>
    <rect x="514" y="126.6" width="89" height="33" fill="#f44d27"/>
    <text font-size="12px" font-weight="700" font-family="'JetBrains Mono', 'Source Code Pro', monospace" text-anchor="middle"><tspan x="558.5" y="147.6" fill="#f0f0f0">master</tspan></text>
  </g>
</svg>
