<?xml version="1.0" encoding="UTF-8"?>
<svg version="1.1" width="957.8" height="443.2" viewBox="0 0 478.9 221.6" xmlns="http://www.w3.org/2000/svg">
  <title>basic rebase 1</title>
  <path d="m93 138.5h29.3v1h-29.3v4l-9-4.5 9-4.5z" fill="#8f8981"/>
  <path d="m220.3 138.5h28.7v1h-28.7v4l-9-4.5 9-4.5z" fill="#8f8981"/>
  <path d="m347 138.5h29.9v1h-29.9v4l-9-4.5 9-4.5z" fill="#8f8981"/>
  <path d="M394.202 97.2 L346.887 118.767 L345.021 114.672 L338.698 122.5 L348.754 122.862 L346.887 118.767 Z" fill="#8f8981"/>
  <path d="m430.4 37v18.2h1v-18.2h4l-4.5 9-4.5-9z" fill="#8f8981"/>
  <path d="m430.4 155.5v20.1h1v-20.1h4l-4.5-9-4.5 9z" fill="#8f8981"/>
  <g>
    <rect x="4" y="122.5" width="89" height="33" rx="16.5" ry="16.5" fill="#efefe7"/>
    <text font-size="12px" font-weight="700" font-family="'JetBrains Mono', 'Source Code Pro', monospace" text-anchor="middle"><tspan x="48.5" y="143.5" fill="gray">C0</tspan></text>
  </g>
  <g>
    <rect x="131.3" y="122.5" width="89" height="33" rx="16.5" ry="16.5" fill="#efefe7"/>
    <text font-size="12px" font-weight="700" font-family="'JetBrains Mono', 'Source Code Pro', monospace" text-anchor="middle"><tspan x="175.8" y="143.5" fill="gray">C1</tspan></text>
  </g>
  <g>
    <rect x="258" y="122.5" width="89" height="33" rx="16.5" ry="16.5" fill="#efefe7"/>
    <text font-size="12px" font-weight="700" font-family="'JetBrains Mono', 'Source Code Pro', monospace" text-anchor="middle"><tspan x="302.5" y="143.5" fill="gray">C2</tspan></text>
  </g>
  <g>
    <rect x="385.9" y="4" width="89" height="33" fill="#f44d27"/>
    <text font-size="12px" font-weight="700" font-family="'JetBrains Mono', 'Source Code Pro', monospace" text-anchor="middle"><tspan x="430.4" y="25" fill="#f0f0f0">experiment</tspan></text>
  </g>
  <g>
    <rect x="385.9" y="64.2" width="89" height="33" rx="16.5" ry="16.5" fill="#efefe7"/>
    <text font-size="12px" font-weight="700" font-family="'JetBrains Mono', 'Source Code Pro', monospace" text-anchor="middle"><tspan x="430.4" y="85.2" fill="gray">C4</tspan></text>
  </g>
  <g>
    <rect x="385.9" y="122.5" width="89" height="33" rx="16.5" ry="16.5" fill="#efefe7"/>
    <text font-size="12px" font-weight="700" font-family="'JetBrains Mono', 'Source Code Pro', monospace" text-anchor="middle"><tspan x="430.4" y="143.5" fill="gray">C3</tspan></text>
  </g>
  <g>
    <rect x="385.9" y="184.6" width="89" height="33" fill="#f44d27"/>
    <text font-size="12px" font-weight="700" font-family="'JetBrains Mono', 'Source Code Pro', monospace" text-anchor="middle"><tspan x="430.4" y="205.6" fill="#f0f0f0">master</tspan></text>
  </g>
</svg>
