<?xml version="1.0" encoding="UTF-8"?>
<svg version="1.1" width="1122.8" height="188" viewBox="0 0 561.4 94" xmlns="http://www.w3.org/2000/svg">
  <title>double dot</title>
  <path d="m102 20h21v1h-21v4l-9-4.5 9-4.5z" fill="#8f8981"/>
  <path d="m221 20h21v1h-21v4l-9-4.5 9-4.5z" fill="#8f8981"/>
  <path d="m340 20h21v1h-21v4l-9-4.5 9-4.5z" fill="#8f8981"/>
  <path d="M249.656 56.543 L212.972 40.205 L214.599 36.551 L204.547 37 L210.938 44.772 L212.565 41.118 L249.249 57.457 Z" fill="#8f8981"/>
  <path d="m340 73h21v1h-21v4l-9-4.5 9-4.5z" fill="#8f8981"/>
  <path d="m459 20h9.4v1h-9.4v4l-9-4.5 9-4.5z" fill="#8f8981"/>
  <path d="m459 73h9.4v1h-9.4v4l-9-4.5 9-4.5z" fill="#8f8981"/>
  <g>
    <rect x="4" y="4" width="89" height="33" rx="16.5" ry="16.5" fill="#efefe7"/>
    <text font-size="12px" font-weight="700" font-family="'JetBrains Mono', 'Source Code Pro', monospace" text-anchor="middle"><tspan x="48.5" y="25" fill="gray">A</tspan></text>
  </g>
  <g>
    <rect x="123" y="4" width="89" height="33" rx="16.5" ry="16.5" fill="#efefe7"/>
    <text font-size="12px" font-weight="700" font-family="'JetBrains Mono', 'Source Code Pro', monospace" text-anchor="middle"><tspan x="167.5" y="25" fill="gray">B</tspan></text>
  </g>
  <g>
    <rect x="242" y="4" width="89" height="33" rx="16.5" ry="16.5" fill="#efefe7"/>
    <text font-size="12px" font-weight="700" font-family="'JetBrains Mono', 'Source Code Pro', monospace" text-anchor="middle"><tspan x="286.5" y="25" fill="gray">E</tspan></text>
  </g>
  <g>
    <rect x="361" y="4" width="89" height="33" rx="16.5" ry="16.5" fill="#efefe7"/>
    <text font-size="12px" font-weight="700" font-family="'JetBrains Mono', 'Source Code Pro', monospace" text-anchor="middle"><tspan x="405.5" y="25" fill="gray">F</tspan></text>
  </g>
  <g>
    <rect x="242" y="57" width="89" height="33" rx="16.5" ry="16.5" fill="#efefe7"/>
    <text font-size="12px" font-weight="700" font-family="'JetBrains Mono', 'Source Code Pro', monospace" text-anchor="middle"><tspan x="286.5" y="78" fill="gray">C</tspan></text>
  </g>
  <g>
    <rect x="361" y="57" width="89" height="33" rx="16.5" ry="16.5" fill="#efefe7"/>
    <text font-size="12px" font-weight="700" font-family="'JetBrains Mono', 'Source Code Pro', monospace" text-anchor="middle"><tspan x="405.5" y="78" fill="gray">D</tspan></text>
  </g>
  <g>
    <rect x="468.4" y="4" width="89" height="33" fill="#f44d27"/>
    <text font-size="12px" font-weight="700" font-family="'JetBrains Mono', 'Source Code Pro', monospace" text-anchor="middle"><tspan x="512.9" y="25" fill="#f0f0f0">master</tspan></text>
  </g>
  <g>
    <rect x="468.4" y="57" width="89" height="33" fill="#f44d27"/>
    <text font-size="12px" font-weight="700" font-family="'JetBrains Mono', 'Source Code Pro', monospace" text-anchor="middle"><tspan x="512.9" y="78" fill="#f0f0f0">experiment</tspan></text>
  </g>
</svg>
