<?xml version="1.0" encoding="UTF-8"?>
<svg version="1.1" width="2232.4" height="203" viewBox="0 0 1116.2 101.5" xmlns="http://www.w3.org/2000/svg">
  <title>interesting rebase 5</title>
  <path d="m102 80.5h29.4v1h-29.4v4l-9-4.5 9-4.5z" fill="#8f8981"/>
  <path d="m229.4 80.5h28.6v1h-28.6v4l-9-4.5 9-4.5z" fill="#8f8981"/>
  <path d="m356 80.5h30.2v1h-30.2v4l-9-4.5 9-4.5z" fill="#8f8981"/>
  <path d="m484.2 80.5h28.8v1h-28.8v4l-9-4.5 9-4.5z" fill="#8f8981"/>
  <path d="m611 80.5h29v1h-29v4l-9-4.5 9-4.5z" fill="#8f8981"/>
  <path d="M767 80.5 L738 80.5 L738 76.5 L729 81 L738 85.5 L738 81.5 L767 81.5 Z" fill="#8f8981"/>
  <path d="m865 80.5h30v1h-30v4l-9-4.5 9-4.5z" fill="#8f8981"/>
  <path d="m993 80.5h30.2v1h-30.2v4l-9-4.5 9-4.5z" fill="#8f8981"/>
  <path d="m1067.2 55.5v-18.5h1v18.5h4l-4.5 9-4.5-9h4z" fill="#8f8981"/>
  <g>
    <rect x="4" y="64.5" width="89" height="33" rx="16.5" ry="16.5" fill="#efefe7"/>
    <text font-size="12px" font-weight="700" font-family="'JetBrains Mono', 'Source Code Pro', monospace" text-anchor="middle"><tspan x="48.5" y="85.5" fill="gray">C1</tspan></text>
  </g>
  <g>
    <rect x="131.4" y="64.5" width="89" height="33" rx="16.5" ry="16.5" fill="#efefe7"/>
    <text font-size="12px" font-weight="700" font-family="'JetBrains Mono', 'Source Code Pro', monospace" text-anchor="middle"><tspan x="175.9" y="85.5" fill="gray">C2</tspan></text>
  </g>
  <g>
    <rect x="258" y="64.5" width="89" height="33" rx="16.5" ry="16.5" fill="#efefe7"/>
    <text font-size="12px" font-weight="700" font-family="'JetBrains Mono', 'Source Code Pro', monospace" text-anchor="middle"><tspan x="302.5" y="85.5" fill="gray">C5</tspan></text>
  </g>
  <g>
    <rect x="1022.7" y="4" width="89" height="33" fill="#f44d27"/>
    <text font-size="12px" font-weight="700" font-family="'JetBrains Mono', 'Source Code Pro', monospace" text-anchor="middle"><tspan x="1067.2" y="25" fill="#f0f0f0">master</tspan></text>
  </g>
  <g>
    <rect x="386.2" y="64.5" width="89" height="33" rx="16.5" ry="16.5" fill="#efefe7"/>
    <text font-size="12px" font-weight="700" font-family="'JetBrains Mono', 'Source Code Pro', monospace" text-anchor="middle"><tspan x="430.7" y="85.5" fill="gray">C6</tspan></text>
  </g>
  <g>
    <rect x="513" y="64.5" width="89" height="33" rx="16.5" ry="16.5" fill="#efefe7"/>
    <text font-size="12px" font-weight="700" font-family="'JetBrains Mono', 'Source Code Pro', monospace" text-anchor="middle"><tspan x="557.5" y="85.5" fill="gray">C8'</tspan></text>
  </g>
  <g>
    <rect x="640" y="64.5" width="89" height="33" rx="16.5" ry="16.5" fill="#efefe7"/>
    <text font-size="12px" font-weight="700" font-family="'JetBrains Mono', 'Source Code Pro', monospace" text-anchor="middle"><tspan x="684.5" y="85.5" fill="gray">C9'</tspan></text>
  </g>
  <g>
    <rect x="767" y="64.5" width="89" height="33" rx="16.5" ry="16.5" fill="#efefe7"/>
    <text font-size="12px" font-weight="700" font-family="'JetBrains Mono', 'Source Code Pro', monospace" text-anchor="middle"><tspan x="811.5" y="85.5" fill="gray">C3'</tspan></text>
  </g>
  <g>
    <rect x="895" y="64.5" width="89" height="33" rx="16.5" ry="16.5" fill="#efefe7"/>
    <text font-size="12px" font-weight="700" font-family="'JetBrains Mono', 'Source Code Pro', monospace" text-anchor="middle"><tspan x="939.5" y="85.5" fill="gray">C4'</tspan></text>
  </g>
  <g>
    <rect x="1023.2" y="64.5" width="89" height="33" rx="16.5" ry="16.5" fill="#efefe7"/>
    <text font-size="12px" font-weight="700" font-family="'JetBrains Mono', 'Source Code Pro', monospace" text-anchor="middle"><tspan x="1067.7" y="85.5" fill="gray">C10'</tspan></text>
  </g>
</svg>
