<?xml version="1.0" encoding="UTF-8"?>
<svg version="1.1" width="908" height="412" viewBox="0 0 454 206" xmlns="http://www.w3.org/2000/svg">
  <title>merging workflows 3</title>
  <path d="m102 77h21v1h-21v4l-9-4.5 9-4.5z" fill="#8f8981"/>
  <path d="m221 77h21v1h-21v4l-9-4.5 9-4.5z" fill="#8f8981"/>
  <path d="M248.197 111.54 L214.469 97.086 L216.045 93.409 L206 94 L212.5 101.681 L214.075 98.005 L247.803 112.46 Z" fill="#8f8981"/>
  <path d="m340 128h21v1h-21v4l-9-4.5 9-4.5z" fill="#8f8981"/>
  <path d="m167.5 52v-15h1v15h4l-4.5 9-4.5-9h4z" fill="#8f8981"/>
  <path d="m286.5 52v-15h1v15h4l-4.5 9-4.5-9h4z" fill="#8f8981"/>
  <path d="m405.5 154v15h1v-15h4l-4.5-9-4.5 9h4z" fill="#8f8981"/>
  <g>
    <rect x="4" y="61" width="89" height="33" rx="16.5" ry="16.5" fill="#efefe7"/>
    <text font-size="12px" font-weight="700" font-family="'JetBrains Mono', 'Source Code Pro', monospace" text-anchor="middle"><tspan x="48.5" y="82" fill="gray">C1</tspan></text>
  </g>
  <g>
    <rect x="123" y="61" width="89" height="33" rx="16.5" ry="16.5" fill="#efefe7"/>
    <text font-size="12px" font-weight="700" font-family="'JetBrains Mono', 'Source Code Pro', monospace" text-anchor="middle"><tspan x="167.5" y="82" fill="gray">C2</tspan></text>
  </g>
  <g>
    <rect x="242" y="61" width="89" height="33" rx="16.5" ry="16.5" fill="#efefe7"/>
    <text font-size="12px" font-weight="700" font-family="'JetBrains Mono', 'Source Code Pro', monospace" text-anchor="middle"><tspan x="286.5" y="82" fill="gray">C5</tspan></text>
  </g>
  <g>
    <rect x="242" y="112" width="89" height="33" rx="16.5" ry="16.5" fill="#efefe7"/>
    <text font-size="12px" font-weight="700" font-family="'JetBrains Mono', 'Source Code Pro', monospace" text-anchor="middle"><tspan x="286.5" y="133" fill="gray">C3</tspan></text>
  </g>
  <g>
    <rect x="361" y="112" width="89" height="33" rx="16.5" ry="16.5" fill="#efefe7"/>
    <text font-size="12px" font-weight="700" font-family="'JetBrains Mono', 'Source Code Pro', monospace" text-anchor="middle"><tspan x="405.5" y="133" fill="gray">C4</tspan></text>
  </g>
  <g>
    <rect x="242" y="4" width="89" height="33" fill="#f44d27"/>
    <text font-size="12px" font-weight="700" font-family="'JetBrains Mono', 'Source Code Pro', monospace" text-anchor="middle"><tspan x="286.5" y="25" fill="#f0f0f0">develop</tspan></text>
  </g>
  <g>
    <rect x="123" y="4" width="89" height="33" fill="#f44d27"/>
    <text font-size="12px" font-weight="700" font-family="'JetBrains Mono', 'Source Code Pro', monospace" text-anchor="middle"><tspan x="167.5" y="25" fill="#f0f0f0">master</tspan></text>
  </g>
  <g>
    <rect x="361" y="169" width="89" height="33" fill="#f44d27"/>
    <text font-size="12px" font-weight="700" font-family="'JetBrains Mono', 'Source Code Pro', monospace" text-anchor="middle"><tspan x="405.5" y="190" fill="#f0f0f0">ruby_client</tspan></text>
  </g>
</svg>
