<?xml version="1.0" encoding="UTF-8"?>
<svg version="1.1" width="1159" height="610" viewBox="0 0 579.5 305" xmlns="http://www.w3.org/2000/svg">
  <title>perils of rebasing 3</title>
  <path d="m93 69.99h20.01v1h-20.01v4l-9-4.5 9-4.5z" fill="#8f8981"/>
  <path d="M166.01 37 L166.01 44.99 L162.01 44.99 L166.51 53.99 L171.01 44.99 L167.01 44.99 L167.01 37 Z" fill="#8f8981"/>
  <path d="M240.01 69.99 L220.01 69.99 L220.01 65.99 L211.01 70.49 L220.01 74.99 L220.01 70.99 L240.01 70.99 Z" fill="#8f8981"/>
  <path d="M240 20 L220.01 20 L220.01 16 L211.01 20.5 L220.01 25 L220.01 21 L240 21 Z" fill="#8f8981"/>
  <path d="m231 20.5h--226.5v1h-226.5v4l9-4.5-9-4.5v4z" fill="#8f8981"/>
  <path d="m93 233.89h20v1h-20v4l-9-4.5 9-4.5z" fill="#8f8981"/>
  <path d="M166 200.89 L166 208.89 L162 208.89 L166.5 217.89 L171 208.89 L167 208.89 L167 200.89 Z" fill="#8f8981"/>
  <path d="M240 233.89 L220 233.89 L220 229.89 L211 234.39 L220 238.89 L220 234.89 L240 234.89 Z" fill="#8f8981"/>
  <path d="M240 183.89 L220 183.89 L220 179.89 L211 184.39 L220 188.89 L220 184.89 L240 184.89 Z" fill="#8f8981"/>
  <path d="m231 184.39h--226.46v1h-226.46v4l9-4.5-9-4.5v4z" fill="#8f8981"/>
  <path d="M127.848 267.54 L95.837 253.947 L97.401 250.266 L87.358 250.89 L93.883 258.55 L95.446 254.868 L127.457 268.46 Z" fill="#8f8981"/>
  <path d="m211.01 284h19.99v1h-19.99v4l-9-4.5 9-4.5z" fill="#8f8981"/>
  <path d="M357.96 284 L338 284 L338 280 L329 284.5 L338 289 L338 285 L357.96 285 Z" fill="#8f8981"/>
  <path d="m348.96 284.5h--226.54v1h-226.54v4l9-4.5-9-4.5v4z" fill="#8f8981"/>
  <g>
    <rect x="4" y="53.99" width="89" height="33" rx="16.5" ry="16.5" fill="#efefe7"/>
    <text font-size="12px" font-weight="700" font-family="'JetBrains Mono', 'Source Code Pro', monospace" text-anchor="middle"><tspan x="48.5" y="74.99" fill="gray">C1</tspan></text>
  </g>
  <g>
    <rect x="368.5" y="4" width="89" height="33" fill="#f44d27"/>
    <text font-size="12px" font-weight="700" font-family="'JetBrains Mono', 'Source Code Pro', monospace" text-anchor="middle"><tspan x="413" y="25" fill="#f0f0f0">master</tspan></text>
  </g>
  <g>
    <rect x="240" y="4" width="89" height="33" rx="16.5" ry="16.5" fill="#efefe7"/>
    <text font-size="12px" font-weight="700" font-family="'JetBrains Mono', 'Source Code Pro', monospace" text-anchor="middle"><tspan x="284.5" y="25" fill="gray">C4'</tspan></text>
  </g>
  <g>
    <rect x="122.01" y="4" width="89" height="33" rx="16.5" ry="16.5" fill="#efefe7"/>
    <text font-size="12px" font-weight="700" font-family="'JetBrains Mono', 'Source Code Pro', monospace" text-anchor="middle"><tspan x="166.51" y="25" fill="gray">C5</tspan></text>
  </g>
  <g>
    <rect x="122.01" y="53.99" width="89" height="33" rx="16.5" ry="16.5" fill="#efefe7"/>
    <text font-size="12px" font-weight="700" font-family="'JetBrains Mono', 'Source Code Pro', monospace" text-anchor="middle"><tspan x="166.51" y="74.99" fill="gray">C4</tspan></text>
  </g>
  <g>
    <rect x="240.01" y="53.99" width="89" height="33" rx="16.5" ry="16.5" fill="#efefe7"/>
    <text font-size="12px" font-weight="700" font-family="'JetBrains Mono', 'Source Code Pro', monospace" text-anchor="middle"><tspan x="284.51" y="74.99" fill="gray">C6</tspan></text>
  </g>
  <g>
    <rect x="4" y="217.89" width="89" height="33" rx="16.5" ry="16.5" fill="#efefe7"/>
    <text font-size="12px" font-weight="700" font-family="'JetBrains Mono', 'Source Code Pro', monospace" text-anchor="middle"><tspan x="48.5" y="238.89" fill="gray">C1</tspan></text>
  </g>
  <g>
    <rect x="122.01" y="268" width="89" height="33" rx="16.5" ry="16.5" fill="#efefe7"/>
    <text font-size="12px" font-weight="700" font-family="'JetBrains Mono', 'Source Code Pro', monospace" text-anchor="middle"><tspan x="166.51" y="289" fill="gray">C2</tspan></text>
  </g>
  <g>
    <rect x="240" y="268" width="89" height="33" rx="16.5" ry="16.5" fill="#efefe7"/>
    <text font-size="12px" font-weight="700" font-family="'JetBrains Mono', 'Source Code Pro', monospace" text-anchor="middle"><tspan x="284.5" y="289" fill="gray">C3</tspan></text>
  </g>
  <g>
    <rect x="357.96" y="268" width="89" height="33" rx="16.5" ry="16.5" fill="#efefe7"/>
    <text font-size="12px" font-weight="700" font-family="'JetBrains Mono', 'Source Code Pro', monospace" text-anchor="middle"><tspan x="402.46" y="289" fill="gray">C7</tspan></text>
  </g>
  <g>
    <rect x="240" y="167.89" width="89" height="33" rx="16.5" ry="16.5" fill="#efefe7"/>
    <text font-size="12px" font-weight="700" font-family="'JetBrains Mono', 'Source Code Pro', monospace" text-anchor="middle"><tspan x="284.5" y="188.89" fill="gray">C4'</tspan></text>
  </g>
  <g>
    <rect x="122" y="217.89" width="89" height="33" rx="16.5" ry="16.5" fill="#efefe7"/>
    <text font-size="12px" font-weight="700" font-family="'JetBrains Mono', 'Source Code Pro', monospace" text-anchor="middle"><tspan x="166.5" y="238.89" fill="gray">C4</tspan></text>
  </g>
  <g>
    <rect x="122" y="167.89" width="89" height="33" rx="16.5" ry="16.5" fill="#efefe7"/>
    <text font-size="12px" font-weight="700" font-family="'JetBrains Mono', 'Source Code Pro', monospace" text-anchor="middle"><tspan x="166.5" y="188.89" fill="gray">C5</tspan></text>
  </g>
  <g>
    <rect x="240" y="217.89" width="89" height="33" rx="16.5" ry="16.5" fill="#efefe7"/>
    <text font-size="12px" font-weight="700" font-family="'JetBrains Mono', 'Source Code Pro', monospace" text-anchor="middle"><tspan x="284.5" y="238.89" fill="gray">C6</tspan></text>
  </g>
  <g>
    <rect x="486.5" y="268" width="89" height="33" fill="#f44d27"/>
    <text font-size="12px" font-weight="700" font-family="'JetBrains Mono', 'Source Code Pro', monospace" text-anchor="middle"><tspan x="531" y="289" fill="#f0f0f0">master</tspan></text>
  </g>
  <g>
    <rect x="368.46" y="167.9" width="89" height="33" fill="#f44d27"/>
    <text font-size="12px" font-weight="700" font-family="'JetBrains Mono', 'Source Code Pro', monospace" text-anchor="middle"><tspan x="412.96" y="188.9" fill="#f0f0f0">teamone/master</tspan></text>
  </g>
</svg>
