<?xml version="1.0" encoding="UTF-8"?>
<svg version="1.1" width="1383" height="354.8" viewBox="0 0 691.5 177.4" xmlns="http://www.w3.org/2000/svg">
  <title>public small 3</title>
  <path d="m93 76.02h20.9v1h-20.9v4l-9-4.5 9-4.5z" fill="#8f8981"/>
  <path d="m211.9 76.02h20.9v1h-20.9v4l-9-4.5 9-4.5z" fill="#8f8981"/>
  <path d="M360.7 60.977 L339.61 65.383 L338.69 60.978 L330.8 67.223 L340.53 69.788 L339.61 65.383 Z" fill="#8f8981"/>
  <path d="m568.6 51.68h-216.9v1h--216.9v4l9-4.5-9-4.5z" fill="#8f8981"/>
  <path d="M360.7 91.851 L339.615 87.506 L340.523 83.098 L330.8 85.689 L338.707 91.913 L339.615 87.506 Z" fill="#8f8981"/>
  <path d="m449.7 100.52h20.9v1h-20.9v4l-9-4.5 9-4.5z" fill="#8f8981"/>
  <path d="M286.3 140.4 L286.3 102.02 L290.8 102.02 L286.3 93.02 L281.8 102.02 L286.3 102.02 Z" fill="#8f8981"/>
  <path d="m211.9 76.52h20.9v1h-20.9v4l9-4.5-9-4.5z" fill="#8f8981"/>
  <path d="m286.3 37v14.02h1v-14.02h4l-4.5 9-4.5-9z" fill="#8f8981"/>
  <path d="m687.5 101.12h-216.9v1h--216.9v4l9-4.5-9-4.5z" fill="#8f8981"/>
  <path d="m449.7 156.9h-216.9v1h--216.9v4l9-4.5-9-4.5z" fill="#8f8981"/>
  <g>
    <rect x="4" y="60.02" width="89" height="33" rx="16.5" ry="16.5" fill="#efefe7"/>
    <text font-size="12px" font-weight="700" font-family="'JetBrains Mono', 'Source Code Pro', monospace" text-anchor="middle"><tspan x="48.5" y="81.02" fill="gray">4b078</tspan></text>
  </g>
  <g>
    <rect x="122.9" y="60.02" width="89" height="33" rx="16.5" ry="16.5" fill="#efefe7"/>
    <text font-size="12px" font-weight="700" font-family="'JetBrains Mono', 'Source Code Pro', monospace" text-anchor="middle"><tspan x="167.4" y="81.02" fill="gray">1edee</tspan></text>
  </g>
  <g>
    <rect x="241.8" y="60.02" width="89" height="33" rx="16.5" ry="16.5" fill="#efefe7"/>
    <text font-size="12px" font-weight="700" font-family="'JetBrains Mono', 'Source Code Pro', monospace" text-anchor="middle"><tspan x="286.3" y="81.02" fill="gray">33009</tspan></text>
  </g>
  <g>
    <rect x="479.6" y="84.62" width="89" height="33" rx="16.5" ry="16.5" fill="#efefe7"/>
    <text font-size="12px" font-weight="700" font-family="'JetBrains Mono', 'Source Code Pro', monospace" text-anchor="middle"><tspan x="524.1" y="105.62" fill="gray">5399e</tspan></text>
  </g>
  <g>
    <rect x="360.7" y="35.18" width="89" height="33" rx="16.5" ry="16.5" fill="#efefe7"/>
    <text font-size="12px" font-weight="700" font-family="'JetBrains Mono', 'Source Code Pro', monospace" text-anchor="middle"><tspan x="405.2" y="56.18" fill="gray">17f4d</tspan></text>
  </g>
  <g>
    <rect x="241.8" y="140.4" width="89" height="33" rx="16.5" ry="16.5" fill="#efefe7"/>
    <text font-size="12px" font-weight="700" font-family="'JetBrains Mono', 'Source Code Pro', monospace" text-anchor="middle"><tspan x="286.3" y="161.4" fill="gray">e5b0f</tspan></text>
  </g>
  <g>
    <rect x="360.7" y="84.52" width="89" height="33" rx="16.5" ry="16.5" fill="#efefe7"/>
    <text font-size="12px" font-weight="700" font-family="'JetBrains Mono', 'Source Code Pro', monospace" text-anchor="middle"><tspan x="405.2" y="105.52" fill="gray">dee6b</tspan></text>
  </g>
  <g>
    <rect x="122.9" y="4" width="89" height="33" fill="#f44d27"/>
    <text font-size="12px" font-weight="700" font-family="'JetBrains Mono', 'Source Code Pro', monospace" text-anchor="middle"><tspan x="167.4" y="25" fill="#f0f0f0">master</tspan></text>
  </g>
  <g>
    <rect x="598.5" y="84.55" width="89" height="33" fill="#f44d27"/>
    <text font-size="12px" font-weight="700" font-family="'JetBrains Mono', 'Source Code Pro', monospace" text-anchor="middle"><tspan x="643" y="105.55" fill="#f0f0f0">featureA</tspan></text>
  </g>
  <g>
    <rect x="360.7" y="140.4" width="89" height="33" fill="#f44d27"/>
    <text font-size="12px" font-weight="700" font-family="'JetBrains Mono', 'Source Code Pro', monospace" text-anchor="middle"><tspan x="405.2" y="161.4" fill="#f0f0f0">featureB</tspan></text>
  </g>
  <g>
    <rect x="479.6" y="35.11" width="89" height="33" fill="#f44d27"/>
    <text font-size="12px" font-weight="700" font-family="'JetBrains Mono', 'Source Code Pro', monospace" text-anchor="middle"><tspan x="524.1" y="56.11" fill="#f0f0f0">featureBv2</tspan></text>
  </g>
  <g>
    <rect x="241.8" y="4" width="89" height="33" fill="#f44d27"/>
    <text font-size="12px" font-weight="700" font-family="'JetBrains Mono', 'Source Code Pro', monospace" text-anchor="middle"><tspan x="286.3" y="18.165" fill="#f0f0f0">origin/</tspan><tspan x="286.3" dy="13.07" fill="#f0f0f0">master</tspan></text>
  </g>
</svg>
