<?xml version="1.0" encoding="UTF-8"?>
<svg version="1.1" width="468.4" height="818" viewBox="0 0 234.2 409" xmlns="http://www.w3.org/2000/svg">
  <title>replace2</title>
  <path d="m48.5 37v50h1v-50h4l-4.5-9-4.5 9z" fill="#8f8981"/>
  <path d="m48.5 129v50h1v-50h4l-4.5-9-4.5 9z" fill="#8f8981"/>
  <path d="m48.5 221v50h1v-50h4l-4.5-9-4.5 9z" fill="#8f8981"/>
  <path d="m48.5 313v50h1v-50h4l-4.5-9-4.5 9z" fill="#8f8981"/>
  <path d="m230.2 20.5h-235.2v1h--235.2v4l9-4.5-9-4.5z" fill="#8f8981"/>
  <path d="m230.2 112.5h-235.2v1h--235.2v4l9-4.5-9-4.5z" fill="#8f8981"/>
  <g>
    <rect x="4" y="4" width="89" height="33" rx="16.5" ry="16.5" fill="#efefe7"/>
    <text font-size="12px" font-weight="700" font-family="'JetBrains Mono', 'Source Code Pro', monospace" text-anchor="middle"><tspan x="48.5" y="25" fill="gray">ef989</tspan></text>
  </g>
  <g>
    <rect x="4" y="96" width="89" height="33" rx="16.5" ry="16.5" fill="#efefe7"/>
    <text font-size="12px" font-weight="700" font-family="'JetBrains Mono', 'Source Code Pro', monospace" text-anchor="middle"><tspan x="48.5" y="117" fill="gray">c6e1e</tspan></text>
  </g>
  <g>
    <rect x="4" y="188" width="89" height="33" rx="16.5" ry="16.5" fill="#efefe7"/>
    <text font-size="12px" font-weight="700" font-family="'JetBrains Mono', 'Source Code Pro', monospace" text-anchor="middle"><tspan x="48.5" y="209" fill="gray">9c68f</tspan></text>
  </g>
  <g>
    <rect x="4" y="280" width="89" height="33" rx="16.5" ry="16.5" fill="#efefe7"/>
    <text font-size="12px" font-weight="700" font-family="'JetBrains Mono', 'Source Code Pro', monospace" text-anchor="middle"><tspan x="48.5" y="301" fill="gray">94570</tspan></text>
  </g>
  <g>
    <rect x="4" y="372" width="89" height="33" rx="16.5" ry="16.5" fill="#efefe7"/>
    <text font-size="12px" font-weight="700" font-family="'JetBrains Mono', 'Source Code Pro', monospace" text-anchor="middle"><tspan x="48.5" y="393" fill="gray">c1822</tspan></text>
  </g>
  <g>
    <rect x="141.2" y="4" width="89" height="33" fill="#f44d27"/>
    <text font-size="12px" font-weight="700" font-family="'JetBrains Mono', 'Source Code Pro', monospace" text-anchor="middle"><tspan x="185.7" y="25" fill="#f0f0f0">master</tspan></text>
  </g>
  <g>
    <rect x="141.2" y="97" width="89" height="33" fill="#f44d27"/>
    <text font-size="12px" font-weight="700" font-family="'JetBrains Mono', 'Source Code Pro', monospace" text-anchor="middle"><tspan x="185.7" y="118" fill="#f0f0f0">history</tspan></text>
  </g>
</svg>
