<?xml version="1.0" encoding="UTF-8"?>
<svg version="1.1" width="757.6" height="642" viewBox="0 0 378.8 321" xmlns="http://www.w3.org/2000/svg">
  <title>reset ex6</title>
  <path d="m188.7 40v-3h1v3h4l-4.5 9-4.5-9h4z" fill="#8f8981"/>
  <path d="m93 140.99h42.9v1h-42.9v4l-9-4.5 9-4.5z" fill="#8f8981"/>
  <g>
    <rect x="285.8" y="284" width="89" height="33" fill="#f44d27"/>
    <text font-size="12px" font-weight="700" font-family="'JetBrains Mono', 'Source Code Pro', monospace" text-anchor="middle"><tspan x="330.3" y="298.165" fill="#f0f0f0">file.txt</tspan><tspan x="330.3" dy="13.07" fill="#f0f0f0">v2</tspan></text>
  </g>
  <g>
    <rect x="285.8" y="227.67" width="89" height="33" fill="#f44d27"/>
    <text font-size="12px" font-weight="700" font-family="'JetBrains Mono', 'Source Code Pro', monospace" text-anchor="middle"><tspan x="330.3" y="241.835" fill="#f0f0f0">Working</tspan><tspan x="330.3" dy="13.07" fill="#f0f0f0">Directory</tspan></text>
  </g>
  <g>
    <rect x="144.9" y="227.62" width="89" height="33" rx="16.5" ry="16.5" fill="#00909a"/>
    <text font-size="12px" font-weight="700" font-family="'JetBrains Mono', 'Source Code Pro', monospace" text-anchor="middle"><tspan x="189.4" y="248.62" fill="#f0f0f0">Index</tspan></text>
  </g>
  <g>
    <rect x="144.9" y="284" width="89" height="33" fill="#f44d27"/>
    <text font-size="12px" font-weight="700" font-family="'JetBrains Mono', 'Source Code Pro', monospace" text-anchor="middle"><tspan x="189.4" y="298.165" fill="#f0f0f0">file.txt</tspan><tspan x="189.4" dy="13.07" fill="#f0f0f0">v2</tspan></text>
  </g>
  <g>
    <rect x="4" y="227.62" width="89" height="33" rx="16.5" ry="16.5" fill="#efefe7"/>
    <text font-size="12px" font-weight="700" font-family="'JetBrains Mono', 'Source Code Pro', monospace" text-anchor="middle"><tspan x="48.5" y="248.62" fill="gray">HEAD</tspan></text>
  </g>
  <g>
    <rect x="4" y="284" width="89" height="33" fill="#f44d27"/>
    <text font-size="12px" font-weight="700" font-family="'JetBrains Mono', 'Source Code Pro', monospace" text-anchor="middle"><tspan x="48.5" y="305" fill="#f0f0f0">9e5e6a4</tspan></text>
  </g>
  <g>
    <rect x="4" y="124.99" width="89" height="33" rx="16.5" ry="16.5" fill="#00909a"/>
    <text font-size="12px" font-weight="700" font-family="'JetBrains Mono', 'Source Code Pro', monospace" text-anchor="middle"><tspan x="48.5" y="139.155" fill="#f0f0f0">file.txt</tspan><tspan x="48.5" dy="13.07" fill="#f0f0f0">v1</tspan></text>
  </g>
  <g>
    <rect x="144.9" y="124.99" width="89" height="33" fill="#f44d27"/>
    <text font-size="12px" font-weight="700" font-family="'JetBrains Mono', 'Source Code Pro', monospace" text-anchor="middle"><tspan x="189.4" y="139.155" fill="#f0f0f0">file.txt</tspan><tspan x="189.4" dy="13.07" fill="#f0f0f0">v2</tspan></text>
  </g>
  <g>
    <rect x="144.2" y="4" width="89" height="33" rx="16.5" ry="16.5" fill="#efefe7"/>
    <text font-size="12px" font-weight="700" font-family="'JetBrains Mono', 'Source Code Pro', monospace" text-anchor="middle"><tspan x="188.7" y="25" fill="gray">HEAD</tspan></text>
  </g>
  <g>
    <rect x="144.2" y="49" width="89" height="33" rx="16.5" ry="16.5" fill="#cd9f00"/>
    <text font-size="12px" font-weight="700" font-family="'JetBrains Mono', 'Source Code Pro', monospace" text-anchor="middle"><tspan x="188.7" y="70" fill="#f0f0f0">master</tspan></text>
  </g>
</svg>
